<svg width="59" height="65" viewBox="0 0 59 65" fill="none" xmlns="http://www.w3.org/2000/svg">
<g clip-path="url(#clip0_3090_1447)">
<path d="M40.2467 23.1492C40.6737 21.781 40.4994 20.5348 39.8371 20.2995L38.6519 19.9161C37.9983 19.7069 37.1094 20.6481 36.6737 22.0163L30.2859 42.1731C29.8502 43.5413 30.0332 44.7875 30.6867 45.0228L31.8719 45.4062C32.5343 45.6154 33.4231 44.6655 33.8502 43.306L40.2467 23.1492Z" fill="#A8864D"/>
<path d="M39.9514 20.1164C39.7215 20.1847 39.4763 20.1822 39.2478 20.1091C39.0192 20.036 38.818 19.8958 38.6704 19.7068L28.6747 1.60657C28.4046 1.23184 28.5702 0.857112 29.0408 0.735107L44.3697 1.36256C44.6312 1.33195 44.8962 1.35729 45.1471 1.43692C45.398 1.51655 45.6291 1.64865 45.8251 1.82443L58.7227 10.173C58.7955 10.2302 58.8508 10.3067 58.8825 10.3937C58.9141 10.4808 58.9208 10.5749 58.9017 10.6656C58.8827 10.7562 58.8387 10.8397 58.7747 10.9066C58.7108 10.9736 58.6293 11.0213 58.5396 11.0445L39.9514 20.1164Z" fill="#07AD92"/>
<path d="M41.991 11.4628C42.0659 11.3067 42.0759 11.1273 42.0187 10.9639C41.9615 10.8006 41.8419 10.6666 41.686 10.5913L29.259 1.37996C28.9801 1.29281 28.649 1.52811 28.527 1.90284L22.6621 20.4126C22.6222 20.4889 22.5983 20.5725 22.5917 20.6583C22.5851 20.7441 22.596 20.8303 22.6237 20.9118C22.6514 20.9932 22.6954 21.0682 22.7529 21.1322C22.8104 21.1962 22.8803 21.2479 22.9583 21.2841L35.3854 30.4867C35.5505 30.5146 35.72 30.4763 35.857 30.38C35.994 30.2838 36.0876 30.1374 36.1174 29.9725L41.991 11.4628Z" fill="#06967E"/>
<path d="M58.4776 11.4279C58.5174 11.3516 58.5414 11.268 58.5479 11.1822C58.5545 11.0964 58.5436 11.0102 58.5159 10.9287C58.4882 10.8473 58.4443 10.7722 58.3868 10.7083C58.3293 10.6443 58.2594 10.5926 58.1813 10.5564L42.7216 10.9137C42.5559 10.8906 42.3875 10.9319 42.2513 11.0291C42.1151 11.1264 42.0215 11.2723 41.9896 11.4366L36.116 29.9464C36.0427 30.1017 36.0327 30.2794 36.088 30.442C36.1433 30.6046 36.2595 30.7393 36.4123 30.8178L51.8807 30.4605C52.1595 30.5477 52.4907 30.3124 52.6127 29.9376L58.4776 11.4279Z" fill="#3ABDA7"/>
<path fill-rule="evenodd" clip-rule="evenodd" d="M31.4464 12.4912C31.0417 11.762 30.8944 10.9178 31.0281 10.0947C31.1327 9.53694 30.4094 8.74392 30.6446 8.60448C30.8799 8.46505 30.7318 8.7439 32.283 9.84194C33.8342 10.94 34.9584 11.9509 35.3157 12.1513C35.673 12.3517 36.0913 12.6045 35.9693 12.8921C35.8473 13.1796 34.2263 18.4258 33.7383 19.9335C33.2503 21.4411 32.8669 23.4193 31.9518 23.489C31.0368 23.5587 30.4529 22.6175 29.8603 22.6872C29.2677 22.757 28.9366 23.1927 28.5183 22.0162C28.1 20.8398 28.283 19.1491 29.3462 18.9138C30.0608 18.7483 30.6446 19.2537 31.2982 19.8812C31.9518 20.5086 32.2656 21.1622 32.4137 20.6829C32.5619 20.2036 33.8342 16.6132 33.8952 16.0119C33.9382 15.6806 33.8996 15.3438 33.7826 15.0309C33.6657 14.718 33.4739 14.4385 33.2242 14.2167C32.6316 13.659 32.0477 13.5892 31.4464 12.4912Z" fill="#AD1F15"/>
<path fill-rule="evenodd" clip-rule="evenodd" d="M44.63 23.245C44.2553 22.8267 43.1224 22.879 42.8871 22.3735C42.9131 21.4513 43.2168 20.5583 43.7585 19.8114C43.9865 19.4501 44.2825 19.1363 44.63 18.8877C45.6409 18.2254 46.0505 20.0467 46.2335 20.4389C46.5123 21.0576 47.1049 21.8071 46.7564 22.5565C46.4078 23.306 45.24 23.428 44.8566 24.221C44.7557 24.4025 44.6941 24.6032 44.6758 24.81C44.6575 25.0168 44.6828 25.2251 44.7502 25.4215C44.8176 25.6179 44.9255 25.7979 45.0669 25.9499C45.2083 26.1019 45.3801 26.2225 45.5712 26.3038C46.2596 26.4955 49.3533 24.099 48.6736 22.9923C48.5017 22.8401 48.2941 22.7339 48.0701 22.6836C47.846 22.6333 47.613 22.6406 47.3925 22.7047C47.3925 22.7047 47.3141 21.4759 47.2967 21.3626C47.2404 20.9318 47.1199 20.5117 46.9393 20.1165C46.7563 19.7243 45.8587 18.8616 46.9393 18.5914C47.3577 18.4868 50.1289 18.4433 50.4252 18.8093C50.7424 19.228 51.0004 19.6884 51.1921 20.1775C51.3751 20.7788 51.7934 21.6415 51.471 22.3387C51.1485 23.0358 49.7978 23.2624 49.3795 24.0816C49.1728 24.4075 49.0967 24.7993 49.1661 25.1789C49.2356 25.5585 49.4455 25.8979 49.7542 26.1295C50.7912 26.6437 52.7781 24.343 52.9611 23.0271C53.0919 22.1034 52.6213 20.8659 52.4644 19.7504C52.3075 18.635 51.898 17.4062 52.1856 16.2646C49.5712 16.1339 47.2705 16.0293 44.6823 15.916C43.4535 18.0772 41.789 19.9073 42.3903 22.9487C42.1463 23.4541 41.2487 23.5064 40.9611 23.9596C40.4121 25.3016 40.6561 26.4607 41.0396 26.574C41.8065 26.9313 44.5167 24.9879 44.63 23.245Z" fill="#E32D20"/>
<path d="M32.8312 40.3604H0.5V42.661H32.8312V40.3604Z" fill="#F58233"/>
<path d="M16.6656 35.4453C7.7331 35.4453 0.5 38.6697 0.5 42.6436C0.5 46.6174 7.7331 49.8331 16.6656 49.8331C25.598 49.8331 32.8311 46.6087 32.8311 42.6436C32.8311 38.6784 25.598 35.4453 16.6656 35.4453Z" fill="#F58233"/>
<path d="M32.8311 40.3604C32.8311 44.3342 25.598 47.5586 16.6656 47.5586C7.7331 47.5586 0.5 44.3342 0.5 40.3604C0.5 36.3865 7.7331 33.1621 16.6656 33.1621C25.598 33.1621 32.8311 36.3865 32.8311 40.3604Z" fill="#F58233"/>
<path d="M31.5407 40.3604C31.5407 44.0118 24.874 46.9835 16.6649 46.9835C8.45574 46.9835 1.78906 44.0118 1.78906 40.3604C1.78906 36.709 8.44702 33.7373 16.6649 33.7373C24.8827 33.7373 31.5407 36.7003 31.5407 40.3604Z" fill="#FFCB47"/>
<path d="M28.6734 40.3605C28.6734 43.3234 23.279 45.7199 16.6298 45.7199C9.98057 45.7199 4.62109 43.2886 4.62109 40.3605C4.62109 37.4324 10.0154 35.001 16.6647 35.001C23.3139 35.001 28.6734 37.3975 28.6734 40.3605Z" fill="#FFE082"/>
<path d="M7.35742 39.2712C8.04154 39.154 8.70313 38.9305 9.31821 38.6089H11.3226V41.4499H12.377V42.1121H7.87158V41.4499H8.99577V39.5849L7.87158 39.8202L7.35742 39.2712Z" fill="#A8864D"/>
<path d="M12.8223 40.3431C12.8223 39.2799 14.1294 38.5479 16.0031 38.5479C18.2079 38.5479 19.2362 39.2712 19.2362 40.3779C19.2362 41.4847 18.0946 42.1731 16.0554 42.1731C14.1817 42.1731 12.8223 41.5457 12.8223 40.3431ZM16.9704 40.3431C16.9704 40.0888 16.8694 39.845 16.6896 39.6652C16.5099 39.4855 16.266 39.3844 16.0118 39.3844C15.7576 39.3844 15.5137 39.4855 15.334 39.6652C15.1542 39.845 15.0532 40.0888 15.0532 40.3431C15.0529 40.6139 15.1568 40.8745 15.3433 41.0708C15.5299 41.2671 15.7849 41.3841 16.0554 41.3975C16.184 41.3957 16.311 41.3672 16.4281 41.314C16.5452 41.2607 16.6501 41.1837 16.736 41.088C16.822 40.9922 16.8872 40.8797 16.9275 40.7575C16.9678 40.6353 16.9825 40.506 16.9704 40.3779V40.3431Z" fill="#A8864D"/>
<path d="M19.5684 40.3431C19.5684 39.2799 20.8756 38.5479 22.7492 38.5479C24.954 38.5479 25.9736 39.2712 25.9736 40.3779C25.9736 41.4847 24.8407 42.1731 22.8015 42.1731C20.9191 42.1731 19.5684 41.5457 19.5684 40.3431ZM23.7165 40.3431C23.7165 40.0888 23.6155 39.845 23.4358 39.6652C23.256 39.4855 23.0121 39.3844 22.7579 39.3844C22.5037 39.3844 22.2599 39.4855 22.0801 39.6652C21.9003 39.845 21.7993 40.0888 21.7993 40.3431C21.799 40.6139 21.9029 40.8745 22.0894 41.0708C22.276 41.2671 22.531 41.3841 22.8015 41.3975C22.9302 41.3957 23.0571 41.3672 23.1742 41.314C23.2913 41.2607 23.3962 41.1837 23.4821 41.088C23.5681 40.9922 23.6333 40.8797 23.6736 40.7575C23.714 40.6353 23.7286 40.506 23.7165 40.3779V40.3431Z" fill="#A8864D"/>
<path d="M32.307 34.6568L30.7266 36.3286L50.846 55.348L52.4265 53.6761L32.307 34.6568Z" fill="#F58233"/>
<path d="M45.7206 40.6219C40.1606 35.3931 33.4417 33.4585 30.714 36.3518C27.9863 39.245 30.2783 45.8332 35.8382 51.0794C41.3981 56.3256 48.1171 58.2428 50.8447 55.3496C53.5724 52.4563 51.2718 45.9029 45.7206 40.6219Z" fill="#F58233"/>
<path d="M52.421 53.6852C49.6933 56.5697 42.9744 54.6612 37.4145 49.415C31.8546 44.1688 29.5713 37.5719 32.2903 34.6786C35.0092 31.7854 41.7456 33.7026 47.2968 38.9314C52.848 44.1601 55.1487 50.7919 52.421 53.6852Z" fill="#F58233"/>
<path d="M51.619 52.9268C49.1092 55.5847 42.9044 53.7982 37.8064 48.9965C32.7084 44.1948 30.582 38.0597 33.0918 35.4453C35.6016 32.8309 41.8064 34.5739 46.9044 39.3756C52.0025 44.1773 54.1288 50.2601 51.619 52.9268Z" fill="#FFCB47"/>
<path d="M49.8502 51.2537C47.8197 53.4062 42.8175 51.9857 38.6781 48.0816C34.5387 44.1774 32.8219 39.2537 34.8611 37.1012C36.9003 34.9487 41.8938 36.3779 46.0332 40.282C50.1727 44.1861 51.8894 49.1012 49.8502 51.2537Z" fill="#FFE082"/>
<path d="M37.311 37.9116C37.8206 38.2422 38.3884 38.4729 38.9842 38.5914L40.2304 39.7678L38.2609 41.8332L38.9145 42.4519L38.4526 42.9312L35.6465 40.3169L36.1084 39.8288L36.8055 40.4912L38.0866 39.1404L37.2151 38.6524L37.311 37.9116Z" fill="#A8864D"/>
<path d="M40.0037 41.9117C40.727 41.1448 42.0516 41.3714 43.2106 42.4694C44.5875 43.7679 44.727 44.9008 43.9688 45.7025C43.2106 46.5043 42.0254 46.3387 40.7618 45.1448C39.4982 43.9509 39.1322 42.8093 40.0037 41.9117ZM42.557 44.3779C42.6511 44.2978 42.7282 44.1997 42.784 44.0894C42.8398 43.9792 42.8731 43.8589 42.8821 43.7357C42.891 43.6124 42.8753 43.4886 42.836 43.3715C42.7966 43.2543 42.7344 43.1462 42.6529 43.0533C42.5601 42.9777 42.4528 42.922 42.3376 42.8897C42.2223 42.8573 42.1017 42.8491 41.9832 42.8655C41.8646 42.8818 41.7507 42.9224 41.6485 42.9847C41.5463 43.047 41.4581 43.1297 41.3893 43.2276C41.2036 43.3978 41.0901 43.6327 41.0723 43.8839C41.0545 44.1352 41.1336 44.3837 41.2934 44.5784C41.3871 44.6484 41.4939 44.6989 41.6075 44.7268C41.7211 44.7547 41.8392 44.7594 41.9547 44.7407C42.0702 44.722 42.1807 44.6803 42.2797 44.618C42.3787 44.5556 42.4641 44.474 42.5309 44.3779H42.557Z" fill="#A8864D"/>
<path d="M44.1682 45.903C44.9003 45.1274 46.2249 45.3627 47.3839 46.4608C48.7608 47.7593 48.9003 48.8921 48.1421 49.6939C47.3839 50.4956 46.1987 50.33 44.9264 49.1361C43.6541 47.9422 43.3229 46.7745 44.1682 45.903ZM46.7303 48.3606C46.8566 48.3002 46.9664 48.2103 47.0505 48.0985C47.1347 47.9867 47.1907 47.8563 47.2138 47.7183C47.2369 47.5803 47.2264 47.4387 47.1833 47.3056C47.1401 47.1725 47.0656 47.0518 46.9659 46.9536C46.8662 46.8554 46.7443 46.7826 46.6106 46.7415C46.4768 46.7003 46.3352 46.692 46.1975 46.7172C46.0599 46.7423 45.9303 46.8003 45.8198 46.8861C45.7093 46.9719 45.6211 47.0831 45.5626 47.2102C45.3744 47.3807 45.2593 47.6174 45.2415 47.8707C45.2236 48.124 45.3043 48.3745 45.4667 48.5697C45.7804 48.8486 46.312 48.7789 46.7303 48.3344V48.3606Z" fill="#A8864D"/>
<path d="M14.1291 56.9999L13.9473 58.593L33.0997 60.7785L33.2815 59.1854L14.1291 56.9999Z" fill="#F58233"/>
<path d="M24.0808 54.6961C18.7911 54.0948 14.2508 55.8377 13.937 58.5828C13.6233 61.3279 17.6582 64.0555 22.9479 64.683C28.2377 65.3104 32.7693 63.5501 33.083 60.7963C33.3967 58.0425 29.3619 55.2974 24.0808 54.6961Z" fill="#F58233"/>
<path d="M33.2666 59.1754C32.9529 61.9205 28.4126 63.6634 23.1229 63.0621C17.8331 62.4608 13.8069 59.7418 14.1207 56.9618C14.4344 54.1819 18.9747 52.4738 24.2558 53.0751C29.5368 53.6765 33.5804 56.4303 33.2666 59.1754Z" fill="#F58233"/>
<path d="M32.4999 59.088C32.2123 61.624 28.038 63.2187 23.1665 62.6697C18.2951 62.1207 14.5914 59.6109 14.879 57.0836C15.1665 54.5564 19.3495 52.9529 24.2123 53.5107C29.075 54.0684 32.7875 56.5608 32.4999 59.088Z" fill="#FFCB47"/>
<path d="M30.8264 58.8964C30.5911 60.9443 27.2099 62.2428 23.2709 61.7896C19.3319 61.3365 16.2992 59.3234 16.5606 57.2754C16.8221 55.2275 20.1772 53.9291 24.1162 54.3822C28.0552 54.8354 31.0617 56.8484 30.8264 58.8964Z" fill="#FFE082"/>
<path d="M18.2598 56.7004C18.6834 56.6723 19.0977 56.5628 19.4798 56.3779L20.665 56.5174L20.4471 58.4782L21.0659 58.5479L21.0136 59.0098L18.3469 58.7047L18.3992 58.2429L19.0615 58.3213L19.2097 57.0402L18.5212 57.1187L18.2598 56.7004Z" fill="#A8864D"/>
<path d="M21.4156 57.8157C21.5028 57.0836 22.3393 56.6566 23.4461 56.7873C24.7533 56.9355 25.3023 57.5019 25.189 58.2688C25.0757 59.0357 24.3698 59.4366 23.1672 59.2971C21.9646 59.1577 21.3197 58.6697 21.4156 57.8157ZM23.8731 58.1206C23.9021 58.039 23.9125 57.9519 23.9036 57.8656C23.8948 57.7794 23.8668 57.6962 23.8218 57.6222C23.7768 57.5481 23.7158 57.485 23.6433 57.4374C23.5709 57.3898 23.4888 57.359 23.4029 57.3471C23.317 57.3352 23.2296 57.3426 23.147 57.3687C23.0643 57.3948 22.9885 57.439 22.9251 57.498C22.8616 57.5571 22.8121 57.6295 22.7801 57.7101C22.7482 57.7906 22.7345 57.8773 22.7402 57.9638C22.7061 58.1379 22.7405 58.3185 22.8363 58.4679C22.9321 58.6173 23.0819 58.7239 23.2544 58.7655C23.5594 58.8004 23.8208 58.539 23.8731 58.1032V58.1206Z" fill="#A8864D"/>
<path d="M25.4158 58.269C25.4943 57.537 26.3308 57.1187 27.4376 57.2407C28.7448 57.3889 29.2938 57.964 29.1805 58.7309C29.0672 59.4978 28.3701 59.89 27.1587 59.7505C25.9474 59.6111 25.32 59.1231 25.4158 58.269ZM27.8646 58.5741C27.8851 58.4904 27.8883 58.4035 27.8742 58.3185C27.8601 58.2336 27.8288 58.1524 27.7824 58.0799C27.7359 58.0074 27.6752 57.945 27.604 57.8966C27.5327 57.8483 27.4524 57.8149 27.3679 57.7984C27.2028 57.8005 27.0448 57.8659 26.9264 57.981C26.8081 58.0961 26.7384 58.2522 26.7317 58.4172C26.6976 58.5913 26.732 58.7719 26.8278 58.9213C26.9236 59.0707 27.0733 59.1773 27.2459 59.2189C27.5509 59.2538 27.8036 58.9749 27.8646 58.5741Z" fill="#A8864D"/>
<path d="M32.8312 34.1382H0.5V36.4388H32.8312V34.1382Z" fill="#F58233"/>
<path d="M16.6656 29.2407C7.7331 29.2407 0.5 32.4651 0.5 36.439C0.5 40.4128 7.7331 43.6285 16.6656 43.6285C25.598 43.6285 32.8311 40.4128 32.8311 36.439C32.8311 32.4651 25.598 29.2407 16.6656 29.2407Z" fill="#F58233"/>
<path d="M32.8311 34.1382C32.8311 38.1121 25.598 41.3365 16.6656 41.3365C7.7331 41.3365 0.5 38.1121 0.5 34.1382C0.5 30.1644 7.7331 26.9399 16.6656 26.9399C25.598 26.9399 32.8311 30.1644 32.8311 34.1382Z" fill="#F58233"/>
<path d="M31.5407 34.1382C31.5407 37.7984 24.874 40.7613 16.6649 40.7613C8.45574 40.7613 1.78906 37.7984 1.78906 34.1382C1.78906 30.4781 8.44702 27.5151 16.6649 27.5151C24.8827 27.5151 31.5407 30.4781 31.5407 34.1382Z" fill="#FFCB47"/>
<path d="M28.675 34.1383C28.675 37.1012 23.2807 39.4978 16.6315 39.4978C9.98223 39.4978 4.58789 37.1012 4.58789 34.1383C4.58789 31.1753 9.98223 28.7788 16.6315 28.7788C23.2807 28.7788 28.675 31.184 28.675 34.1383Z" fill="#FFE082"/>
<path d="M7.35742 33.0488C8.04361 32.9398 8.7065 32.7159 9.31821 32.3865H11.3226V35.2274H12.377V35.8898H7.87158V35.2274H8.99577V33.3712L7.87158 33.6065L7.35742 33.0488Z" fill="#A8864D"/>
<path d="M12.8223 34.1209C12.8223 33.0577 14.1294 32.3257 16.0031 32.3257C18.2079 32.3257 19.2362 33.049 19.2362 34.1557C19.2362 35.2625 18.0946 35.9509 16.0554 35.9509C14.1817 35.9509 12.8223 35.3584 12.8223 34.1209ZM16.9704 34.1209C16.9704 33.8667 16.8694 33.6228 16.6896 33.443C16.5099 33.2633 16.266 33.1623 16.0118 33.1623C15.7576 33.1623 15.5137 33.2633 15.334 33.443C15.1542 33.6228 15.0532 33.8667 15.0532 34.1209C15.0507 34.3924 15.1539 34.6541 15.3409 34.8509C15.5279 35.0477 15.7841 35.164 16.0554 35.1753C16.184 35.1735 16.311 35.1451 16.4281 35.0918C16.5452 35.0385 16.6501 34.9616 16.736 34.8658C16.822 34.77 16.8872 34.6575 16.9275 34.5353C16.9678 34.4131 16.9825 34.2838 16.9704 34.1557V34.1209Z" fill="#A8864D"/>
<path d="M19.5684 34.1209C19.5684 33.0577 20.8756 32.3257 22.7492 32.3257C24.954 32.3257 25.9736 33.049 25.9736 34.1557C25.9736 35.2625 24.8407 35.9509 22.8015 35.9509C20.9191 35.9509 19.5684 35.3584 19.5684 34.1209ZM23.7165 34.1209C23.7165 33.8667 23.6155 33.6228 23.4358 33.443C23.256 33.2633 23.0121 33.1623 22.7579 33.1623C22.5037 33.1623 22.2599 33.2633 22.0801 33.443C21.9003 33.6228 21.7993 33.8667 21.7993 34.1209C21.7968 34.3924 21.9 34.6541 22.087 34.8509C22.274 35.0477 22.5303 35.164 22.8015 35.1753C22.9302 35.1735 23.0571 35.1451 23.1742 35.0918C23.2913 35.0385 23.3962 34.9616 23.4821 34.8658C23.5681 34.77 23.6333 34.6575 23.6736 34.5353C23.714 34.4131 23.7286 34.2838 23.7165 34.1557V34.1209Z" fill="#A8864D"/>
<path d="M33.4679 29.1621H1.13672V31.454H33.4679V29.1621Z" fill="#F58233"/>
<path d="M17.3453 24.2646C8.42151 24.2646 1.17969 27.489 1.17969 31.4629C1.17969 35.4367 8.42151 38.6612 17.3453 38.6612C26.269 38.6612 33.5108 35.4367 33.5108 31.4629C33.5108 27.489 26.2254 24.2646 17.3453 24.2646Z" fill="#F58233"/>
<path d="M33.4679 29.1621C33.4679 33.136 26.2261 36.3604 17.3023 36.3604C8.37856 36.3604 1.13672 33.136 1.13672 29.1621C1.13672 25.1883 8.37856 21.9639 17.3023 21.9639C26.2261 21.9639 33.4679 25.1883 33.4679 29.1621Z" fill="#F58233"/>
<path d="M32.1598 29.1622C32.1598 32.8223 25.5019 35.7853 17.284 35.7853C9.06616 35.7853 2.4082 32.8223 2.4082 29.1622C2.4082 25.502 9.07488 22.5391 17.284 22.5391C25.4932 22.5391 32.1598 25.502 32.1598 29.1622Z" fill="#FFCB47"/>
<path d="M29.3449 29.1622C29.3449 32.1252 23.9506 34.5217 17.3014 34.5217C10.6522 34.5217 5.25781 32.1252 5.25781 29.1622C5.25781 26.1992 10.6522 23.8027 17.3014 23.8027C23.9506 23.8027 29.3449 26.1992 29.3449 29.1622Z" fill="#FFE082"/>
<path d="M7.98633 28.073C8.67712 27.9603 9.34514 27.7366 9.96453 27.4106H11.9602V30.2167H12.9885V30.8878H8.48304V30.2167H9.60723V28.3605L8.48304 28.5871L7.98633 28.073Z" fill="#A8864D"/>
<path d="M13.459 29.1448C13.459 28.0816 14.7662 27.3496 16.6398 27.3496C18.8446 27.3496 19.8729 28.0729 19.8729 29.1797C19.8729 30.2864 18.7313 30.9749 16.6921 30.9749C14.8097 30.9749 13.459 30.3823 13.459 29.1448ZM17.6071 29.1448C17.6071 29.0189 17.5823 28.8943 17.5342 28.778C17.486 28.6617 17.4154 28.556 17.3264 28.467C17.2373 28.378 17.1317 28.3074 17.0154 28.2592C16.899 28.211 16.7744 28.1862 16.6485 28.1862C16.5226 28.1862 16.398 28.211 16.2817 28.2592C16.1654 28.3074 16.0597 28.378 15.9707 28.467C15.8817 28.556 15.8111 28.6617 15.7629 28.778C15.7147 28.8943 15.6899 29.0189 15.6899 29.1448C15.6874 29.4163 15.7906 29.6781 15.9776 29.8749C16.1646 30.0717 16.4208 30.188 16.6921 30.1993C16.8208 30.1975 16.9477 30.169 17.0648 30.1157C17.1819 30.0624 17.2868 29.9855 17.3727 29.8897C17.4587 29.794 17.5239 29.6814 17.5642 29.5592C17.6046 29.437 17.6192 29.3078 17.6071 29.1797V29.1448Z" fill="#A8864D"/>
<path d="M20.2031 29.1448C20.2031 28.0816 21.5103 27.3496 23.3753 27.3496C25.5888 27.3496 26.6084 28.0729 26.6084 29.1797C26.6084 30.2864 25.4754 30.9749 23.4362 30.9749C21.5539 30.9749 20.2031 30.3823 20.2031 29.1448ZM24.3513 29.1448C24.3513 28.8906 24.2503 28.6468 24.0705 28.467C23.8907 28.2872 23.6469 28.1862 23.3927 28.1862C23.1384 28.1862 22.8946 28.2872 22.7148 28.467C22.535 28.6468 22.4341 28.8906 22.4341 29.1448C22.427 29.4207 22.5293 29.6882 22.7187 29.889C22.908 30.0898 23.1691 30.2076 23.445 30.2167C23.5715 30.2092 23.6952 30.176 23.8085 30.1191C23.9218 30.0622 24.0223 29.9828 24.1039 29.8858C24.1855 29.7887 24.2464 29.676 24.2829 29.5546C24.3194 29.4332 24.3309 29.3056 24.3164 29.1797L24.3513 29.1448Z" fill="#A8864D"/>
</g>
<defs>
<clipPath id="clip0_3090_1447">
<rect width="58.4314" height="64" fill="white" transform="translate(0.5 0.77002)"/>
</clipPath>
</defs>
</svg>
