<svg width="71" height="65" viewBox="0 0 71 65" fill="none" xmlns="http://www.w3.org/2000/svg">
<g clip-path="url(#clip0_3090_1513)">
<path d="M37.6581 19.349C37.6581 23.0236 36.5684 26.6157 34.5269 29.671C32.4854 32.7263 29.5838 35.1076 26.1889 36.5138C22.7941 37.92 19.0584 38.288 15.4545 37.5711C11.8505 36.8542 8.54 35.0847 5.94168 32.4864C3.34336 29.8881 1.57387 26.5776 0.856999 22.9736C0.140123 19.3696 0.508051 15.634 1.91425 12.2391C3.32046 8.84427 5.70178 5.94264 8.75708 3.90115C11.8124 1.85966 15.4045 0.77002 19.079 0.77002C24.0057 0.772673 28.7298 2.73094 32.2135 6.21461C35.6971 9.69828 37.6554 14.4224 37.6581 19.349Z" fill="#F58233"/>
<path d="M36.1759 19.3491C36.1759 22.7306 35.1732 26.036 33.2945 28.8476C31.4159 31.6591 28.7458 33.8504 25.6218 35.1445C22.4978 36.4385 19.0602 36.777 15.7437 36.1173C12.4273 35.4577 9.38096 33.8294 6.98994 31.4383C4.59892 29.0473 2.97062 26.001 2.31094 22.6846C1.65126 19.3681 1.98983 15.9305 3.28384 12.8065C4.57785 9.6825 6.76918 7.01237 9.58072 5.13376C12.3923 3.25515 15.6977 2.25244 19.0791 2.25244C23.6135 2.25244 27.9621 4.05369 31.1683 7.25994C34.3746 10.4662 36.1759 14.8148 36.1759 19.3491Z" fill="#FFCB47"/>
<path d="M32.9313 19.3489C32.9313 22.0866 32.1195 24.7627 30.5986 27.0389C29.0776 29.3152 26.9159 31.0893 24.3866 32.1369C21.8574 33.1846 19.0743 33.4587 16.3893 32.9246C13.7043 32.3905 11.238 31.0722 9.30217 29.1365C7.36638 27.2007 6.0481 24.7343 5.51402 22.0493C4.97993 19.3643 5.25404 16.5812 6.30168 14.052C7.34932 11.5228 9.12344 9.361 11.3997 7.84006C13.6759 6.31912 16.3521 5.50733 19.0897 5.50733C20.9078 5.50601 22.7083 5.86313 24.3882 6.55827C26.0681 7.25341 27.5945 8.27293 28.8801 9.5585C30.1657 10.8441 31.1852 12.3705 31.8804 14.0504C32.5755 15.7304 32.9326 17.5309 32.9313 19.3489Z" fill="#FFE082"/>
<path d="M8.37305 16.5247C9.26649 16.1701 10.0507 15.5863 10.6466 14.832H12.9502V22.1535H14.1521V23.8762H8.97399V22.1535H10.266V17.356L8.97399 17.9569L8.37305 16.5247Z" fill="#A8864D"/>
<path d="M14.6621 19.3089C14.6621 16.5646 16.1645 14.6616 18.3178 14.6616C20.8518 14.6616 22.0336 16.5346 22.0336 19.399C22.0336 22.2635 20.7216 24.0263 18.3779 24.0263C16.2246 24.0263 14.6621 22.4838 14.6621 19.3089ZM19.4296 19.399C19.4296 17.8566 18.9388 16.7449 18.2978 16.7449C17.8271 16.7449 17.2261 17.7464 17.2261 19.3089C17.2261 20.8713 17.8671 22.0231 18.3779 22.0231C18.8887 22.0231 19.4296 20.9815 19.4296 19.399Z" fill="#A8864D"/>
<path d="M22.4141 19.3089C22.4141 16.5646 23.9164 14.6616 26.0698 14.6616C28.6037 14.6616 29.7856 16.5346 29.7856 19.399C29.7856 22.2635 28.4735 24.0263 26.1299 24.0263C23.9765 24.0263 22.4141 22.4838 22.4141 19.3089ZM27.1815 19.399C27.1815 17.8566 26.6907 16.7449 26.0598 16.7449C25.4288 16.7449 24.9781 17.7464 24.9781 19.3089C24.9781 20.8713 25.6191 22.0231 26.1299 22.0231C26.6407 22.0231 27.1815 20.9815 27.1815 19.399Z" fill="#A8864D"/>
<path d="M57.7188 49.7066C57.7188 52.6779 56.8377 55.5826 55.1869 58.0532C53.5361 60.5238 51.1898 62.4494 48.4446 63.5865C45.6994 64.7236 42.6787 65.0211 39.7644 64.4414C36.8502 63.8617 34.1732 62.4308 32.0721 60.3298C29.9711 58.2287 28.5402 55.5518 27.9606 52.6375C27.3809 49.7233 27.6784 46.7025 28.8155 43.9574C29.9526 41.2122 31.8782 38.8658 34.3488 37.215C36.8194 35.5642 39.724 34.6831 42.6954 34.6831C46.6798 34.6831 50.5011 36.2659 53.3186 39.0834C56.136 41.9008 57.7188 45.7221 57.7188 49.7066Z" fill="#F58233"/>
<path d="M56.508 49.7064C56.508 52.446 55.6956 55.124 54.1736 57.4019C52.6515 59.6798 50.4882 61.4552 47.9571 62.5036C45.4261 63.552 42.641 63.8263 39.954 63.2919C37.2671 62.7574 34.7989 61.4382 32.8617 59.501C30.9246 57.5638 29.6053 55.0957 29.0708 52.4087C28.5364 49.7218 28.8107 46.9366 29.8591 44.4056C30.9075 41.8745 32.6829 39.7112 34.9608 38.1892C37.2387 36.6671 39.9167 35.8547 42.6563 35.8547C46.3292 35.8574 49.8509 37.3176 52.448 39.9147C55.0451 42.5118 56.5053 46.0335 56.508 49.7064Z" fill="#FFCB47"/>
<path d="M53.8725 49.7065C53.8765 51.926 53.222 54.0968 51.9918 55.9441C50.7616 57.7915 49.0111 59.2323 46.9617 60.0844C44.9123 60.9365 42.6562 61.1616 40.4789 60.731C38.3016 60.3004 36.3009 59.2336 34.7301 57.6656C33.1593 56.0976 32.089 54.0989 31.6545 51.9224C31.2201 49.7458 31.441 47.4893 32.2895 45.4384C33.1379 43.3875 34.5757 41.6344 36.4208 40.4009C38.266 39.1675 40.4355 38.509 42.655 38.509C44.1268 38.5077 45.5844 38.7963 46.9447 39.3583C48.305 39.9203 49.5412 40.7448 50.5829 41.7846C51.6245 42.8244 52.4511 44.0591 53.0156 45.4184C53.58 46.7776 53.8712 48.2347 53.8725 49.7065Z" fill="#FFE082"/>
<path d="M33.9824 47.4229C34.7075 47.137 35.3435 46.6634 35.8253 46.0508H37.6882V51.9901H38.6898V53.3822H34.4632V51.9901H35.4647V48.094L34.4632 48.5847L33.9824 47.4229Z" fill="#A8864D"/>
<path d="M39.0801 49.6765C39.0801 47.453 40.302 45.9106 42.0848 45.9106C44.148 45.9106 45.0895 47.433 45.0895 49.7566C45.0895 52.0803 43.9477 53.5325 42.0948 53.5325C40.2419 53.5325 39.0801 52.2605 39.0801 49.6765ZM42.9461 49.7566C42.9461 48.5047 42.5455 47.6033 42.0247 47.6033C41.5039 47.6033 41.1533 48.3945 41.1533 49.6765C41.1533 50.9585 41.6741 51.88 42.0948 51.88C42.5154 51.88 42.9461 51.0286 42.9461 49.7566Z" fill="#A8864D"/>
<path d="M45.3594 49.6765C45.3594 47.453 46.5813 45.9106 48.3641 45.9106C50.3672 45.9106 51.3688 47.433 51.3688 49.7567C51.3688 52.0803 50.3071 53.5025 48.3641 53.5025C46.421 53.5025 45.3594 52.2605 45.3594 49.6765ZM49.2254 49.7567C49.2254 48.5047 48.8248 47.6033 48.314 47.6033C47.8032 47.6033 47.4426 48.3945 47.4426 49.6765C47.4426 50.9585 47.9534 51.88 48.3741 51.88C48.7947 51.88 49.2254 51.0286 49.2254 49.7567Z" fill="#A8864D"/>
<path d="M70.5201 18.658C70.5181 21.2981 69.7334 23.8784 68.2652 26.0726C66.797 28.2668 64.7112 29.9765 62.2714 30.9855C59.8317 31.9944 57.1476 32.2574 54.5585 31.7411C51.9693 31.2248 49.5914 29.9525 47.7252 28.0849C45.8591 26.2174 44.5885 23.8385 44.0742 21.2489C43.5598 18.6594 43.8248 15.9755 44.8356 13.5365C45.8464 11.0976 47.5576 9.01303 49.7529 7.54646C51.9482 6.07989 54.5291 5.29712 57.1692 5.29712C58.9237 5.2958 60.6612 5.64058 62.2823 6.31168C63.9033 6.98278 65.3761 7.96704 66.6162 9.20811C67.8563 10.4492 68.8395 11.9226 69.5094 13.5442C70.1793 15.1658 70.5227 16.9035 70.5201 18.658Z" fill="#F58233"/>
<path d="M69.4475 18.6578C69.4475 21.0888 68.7265 23.4653 67.3757 25.4864C66.0249 27.5076 64.1051 29.0827 61.8589 30.0126C59.6128 30.9424 57.1413 31.1852 54.7572 30.7102C52.373 30.2352 50.1833 29.0638 48.465 27.3441C46.7467 25.6244 45.5771 23.4337 45.1041 21.0492C44.631 18.6647 44.8758 16.1934 45.8075 13.948C46.7392 11.7027 48.3159 9.78404 50.3381 8.43489C52.3604 7.08574 54.7374 6.36668 57.1684 6.36866C58.7817 6.36866 60.3793 6.68659 61.8697 7.30431C63.3602 7.92202 64.7142 8.82738 65.8546 9.96867C66.995 11.11 67.8992 12.4648 68.5157 13.9557C69.1322 15.4467 69.4489 17.0445 69.4475 18.6578Z" fill="#FFCB47"/>
<path d="M67.1137 18.6579C67.1137 20.625 66.5304 22.5478 65.4376 24.1834C64.3448 25.8189 62.7915 27.0937 60.9742 27.8464C59.1569 28.5992 57.1572 28.7961 55.2279 28.4124C53.2987 28.0286 51.5266 27.0814 50.1356 25.6905C48.7447 24.2996 47.7975 22.5275 47.4138 20.5982C47.03 18.669 47.227 16.6692 47.9797 14.8519C48.7325 13.0346 50.0072 11.4813 51.6428 10.3885C53.2783 9.29568 55.2012 8.7124 57.1682 8.7124C59.8059 8.7124 62.3356 9.76022 64.2008 11.6254C66.0659 13.4905 67.1137 16.0202 67.1137 18.6579Z" fill="#FFE082"/>
<path d="M49.4766 16.6247C50.1174 16.3706 50.6779 15.9485 51.0991 15.4028H52.7617V20.6711H53.623V21.913H49.9573V20.6711H50.8888V17.2257L49.9573 17.6564L49.4766 16.6247Z" fill="#A8864D"/>
<path d="M53.9629 18.6279C53.9629 16.6248 55.0446 15.2827 56.587 15.2827C58.4098 15.2827 59.2612 16.6348 59.2612 18.688C59.2612 20.7412 58.3197 22.0233 56.6371 22.0233C54.9544 22.0233 53.9629 20.9115 53.9629 18.6279ZM57.3882 18.688C57.3882 17.5863 57.0277 16.7851 56.577 16.7851C56.1263 16.7851 55.8058 17.4962 55.8058 18.6279C55.8058 19.7597 56.2665 20.6311 56.6371 20.6311C57.0076 20.6311 57.4183 19.8198 57.4183 18.688H57.3882Z" fill="#A8864D"/>
<path d="M59.5625 18.6279C59.5625 16.6248 60.6442 15.2827 62.1866 15.2827C64.0095 15.2827 64.8608 16.6348 64.8608 18.688C64.8608 20.7412 63.9193 22.0233 62.2367 22.0233C60.5541 22.0233 59.5625 20.9115 59.5625 18.6279ZM62.9879 18.688C62.9879 17.5863 62.6373 16.7851 62.1766 16.7851C61.7159 16.7851 61.4054 17.4962 61.4054 18.6279C61.4054 19.7597 61.8661 20.6311 62.2367 20.6311C62.6073 20.6311 62.9778 19.8198 62.9778 18.688H62.9879Z" fill="#A8864D"/>
</g>
<defs>
<clipPath id="clip0_3090_1513">
<rect width="70.0194" height="64" fill="white" transform="translate(0.5 0.77002)"/>
</clipPath>
</defs>
</svg>
