<svg width="58" height="64" viewBox="0 0 58 64" fill="none" xmlns="http://www.w3.org/2000/svg">
<g clip-path="url(#clip0_3090_1329)">
<path d="M57.1395 49.8601H1.76953L29.4595 1.86011L57.1395 49.8601ZM8.53952 45.9501H50.3795L29.4595 9.7301L8.53952 45.9501Z" fill="#AD1F15"/>
<path d="M29.4595 63.55L1.76953 15.55H57.1395L29.4595 63.55ZM8.53952 19.55L29.4595 55.73L50.3795 19.5001L8.53952 19.55Z" fill="#AD1F15"/>
<path d="M55.881 47.96H0.460938L28.1509 -0.0400391L55.881 47.96ZM7.27094 44.05H49.1109L28.1909 7.81996L7.27094 44.05Z" fill="#F58233"/>
<path d="M28.1909 61.6399L0.460938 13.6899H55.8409L28.1909 61.6399ZM7.27094 17.6399L28.1909 53.8599L49.1109 17.6399H7.27094Z" fill="#F58233"/>
</g>
<defs>
<clipPath id="clip0_3090_1329">
<rect width="56.64" height="63.54" fill="white" transform="translate(0.5)"/>
</clipPath>
</defs>
</svg>
